<svg width="67" height="33" viewBox="0 0 67 33" fill="none" xmlns="http://www.w3.org/2000/svg">
<path d="M10.5826 16.764C9.89328 16.764 9.21861 16.72 8.55861 16.632C8.52928 16.632 8.51461 16.6173 8.51461 16.588C8.51461 16.5146 8.58061 16.3973 8.71261 16.236C8.85928 16.0746 9.01328 15.9206 9.17461 15.774C9.35061 15.642 9.47528 15.576 9.54861 15.576C9.66594 15.576 9.79061 15.5906 9.92261 15.62C10.0693 15.6346 10.2086 15.6493 10.3406 15.664C10.6339 15.6933 10.9346 15.7153 11.2426 15.73C11.5506 15.7593 11.8586 15.774 12.1666 15.774C12.6799 15.774 13.2079 15.73 13.7506 15.642C14.3079 15.5393 14.7919 15.3266 15.2026 15.004C15.5546 14.7106 15.9066 14.3513 16.2586 13.926C16.6253 13.5006 16.8086 13.046 16.8086 12.562C16.8086 12.0633 16.6253 11.6453 16.2586 11.308C15.9066 10.9706 15.4593 10.7066 14.9166 10.516C14.3739 10.3106 13.8313 10.1713 13.2886 10.098C12.7459 10.01 12.2839 9.96598 11.9026 9.96598C11.6679 9.96598 11.4406 9.98065 11.2206 10.01C11.0006 10.0393 10.7733 10.0686 10.5386 10.098H10.4946C10.4359 10.098 10.4066 10.0686 10.4066 10.01C10.4066 9.93665 10.4506 9.83398 10.5386 9.70198C10.6413 9.55531 10.7513 9.42331 10.8686 9.30598C11.0006 9.18865 11.0959 9.12998 11.1546 9.12998C11.7119 9.12998 12.2986 9.06398 12.9146 8.93198C13.5453 8.79998 14.1613 8.61665 14.7626 8.38198C15.3639 8.14731 15.8919 7.88331 16.3466 7.58998C16.6986 7.36998 17.1019 7.08398 17.5566 6.73198C18.0259 6.37998 18.4293 5.99131 18.7666 5.56598C19.1039 5.12598 19.2726 4.67131 19.2726 4.20198C19.2726 3.71798 19.0893 3.30731 18.7226 2.96998C18.3706 2.61798 17.9306 2.32465 17.4026 2.08998C16.8746 1.85531 16.3393 1.67198 15.7966 1.53998C15.2686 1.39331 14.8213 1.29065 14.4546 1.23198C13.9559 1.15865 13.4573 1.10731 12.9586 1.07798C12.4746 1.03398 11.9759 1.01198 11.4626 1.01198C10.8613 1.01198 10.1866 1.05598 9.43861 1.14398C8.69061 1.21731 7.92794 1.34931 7.15061 1.53998C6.38794 1.71598 5.66194 1.96531 4.97261 2.28798C4.28328 2.61065 3.68928 3.02131 3.19061 3.51998C2.69194 4.00398 2.35461 4.59065 2.17861 5.27998C2.13461 5.47065 2.11261 5.66865 2.11261 5.87398C2.11261 6.24065 2.18594 6.58531 2.33261 6.90798C2.47928 7.21598 2.73594 7.43598 3.10261 7.56798H3.16861C3.28594 7.56798 3.39594 7.56065 3.49861 7.54598C3.61594 7.51665 3.72594 7.50198 3.82861 7.50198C3.84328 7.50198 3.87261 7.50931 3.91661 7.52398C3.96061 7.52398 3.98261 7.53865 3.98261 7.56798C3.98261 7.67065 3.90194 7.75131 3.74061 7.80998C3.57928 7.85398 3.46194 7.87598 3.38861 7.87598C3.13928 7.87598 2.92661 7.81731 2.75061 7.69998C2.57461 7.58265 2.43528 7.52398 2.33261 7.52398C2.31794 7.52398 2.30328 7.53131 2.28861 7.54598C2.27394 7.54598 2.26661 7.54598 2.26661 7.54598C2.23728 7.57531 2.21528 7.61198 2.20061 7.65598C2.18594 7.69998 2.14928 7.72198 2.09061 7.72198C2.00261 7.72198 1.92194 7.64865 1.84861 7.50198C1.77528 7.34065 1.71661 7.16465 1.67261 6.97398C1.62861 6.78331 1.60661 6.65131 1.60661 6.57798C1.60661 6.26998 1.64328 5.94731 1.71661 5.60998C1.90728 4.77398 2.26661 4.04798 2.79461 3.43198C3.33728 2.80131 3.98994 2.26598 4.75261 1.82598C5.51528 1.38598 6.32928 1.03398 7.19461 0.76998C8.05994 0.50598 8.92528 0.315313 9.79061 0.19798C10.6706 0.0659798 11.4846 -2.02656e-05 12.2326 -2.02656e-05C13.3033 -2.02656e-05 14.3519 0.10998 15.3786 0.329979C15.8186 0.41798 16.3099 0.557313 16.8526 0.747979C17.3953 0.938646 17.9159 1.18065 18.4146 1.47398C18.9133 1.76731 19.3239 2.12665 19.6466 2.55198C19.9839 2.96265 20.1526 3.43931 20.1526 3.98198C20.1526 4.55398 19.9693 5.08931 19.6026 5.58798C19.2359 6.07198 18.7959 6.50465 18.2826 6.88598C17.7839 7.26731 17.3146 7.58998 16.8746 7.85398C16.7279 7.94198 16.5153 8.06665 16.2366 8.22798C15.9726 8.37465 15.6793 8.53598 15.3566 8.71198C15.0339 8.87331 14.7333 9.01265 14.4546 9.12998C14.1906 9.23265 13.9853 9.28398 13.8386 9.28398C14.2639 9.29865 14.7113 9.35731 15.1806 9.45998C15.6646 9.56265 16.1119 9.72398 16.5226 9.94398C16.9479 10.164 17.2926 10.4573 17.5566 10.824C17.8206 11.176 17.9526 11.616 17.9526 12.144C17.9526 12.628 17.8206 13.0753 17.5566 13.486C17.3073 13.882 16.9919 14.2266 16.6106 14.52C15.6573 15.2386 14.7186 15.7886 13.7946 16.17C12.8706 16.566 11.7999 16.764 10.5826 16.764ZM1.67261 18.656C1.51128 18.656 1.32061 18.6486 1.10061 18.634C0.880609 18.6193 0.704609 18.5753 0.572609 18.502C0.513943 18.458 0.403943 18.3846 0.242609 18.282C0.081276 18.194 0.000609338 18.106 0.000609338 18.018C0.000609338 17.9153 0.0446093 17.864 0.132609 17.864C0.205943 17.8786 0.242609 17.8273 0.242609 17.71C0.242609 17.5926 0.220609 17.4753 0.176609 17.358C0.132609 17.2406 0.110609 17.1233 0.110609 17.006C0.110609 16.874 0.147276 16.6906 0.220609 16.456C0.293943 16.236 0.411276 16.126 0.572609 16.126C0.616609 16.126 0.638609 16.148 0.638609 16.192C0.638609 16.3386 0.601943 16.478 0.528609 16.61C0.440609 16.742 0.396609 16.874 0.396609 17.006C0.396609 17.2113 0.484609 17.4093 0.660609 17.6C0.821943 17.7906 1.02728 17.9446 1.27661 18.062C1.51128 18.194 1.72394 18.26 1.91461 18.26C1.98794 18.26 2.06861 18.26 2.15661 18.26C2.24461 18.26 2.32528 18.2526 2.39861 18.238C3.14661 18.1353 3.85061 17.7686 4.51061 17.138C5.17061 16.522 5.77928 15.7373 6.33661 14.784C6.90861 13.816 7.42928 12.7746 7.89861 11.66C8.38261 10.5306 8.81528 9.40865 9.19661 8.29398C9.59261 7.17931 9.93728 6.14531 10.2306 5.19198C10.5239 4.23865 10.7659 3.46865 10.9566 2.88198C11.0299 2.64731 11.1106 2.46398 11.1986 2.33198C11.2866 2.18531 11.4259 2.03865 11.6166 1.89198C11.8806 1.68665 12.1886 1.53998 12.5406 1.45198C12.8926 1.34931 13.2299 1.29798 13.5526 1.29798C13.5819 1.29798 13.6259 1.30531 13.6846 1.31998C13.7579 1.33465 13.7946 1.36398 13.7946 1.40798C13.7946 1.46665 13.7433 1.51065 13.6406 1.53998C13.5379 1.55465 13.4719 1.56198 13.4426 1.56198C13.2373 1.56198 13.0173 1.73065 12.7826 2.06798C12.5479 2.40531 12.3133 2.83065 12.0786 3.34398C11.8439 3.85731 11.6239 4.39265 11.4186 4.94998C11.2133 5.49265 11.0373 5.98398 10.8906 6.42398C10.7439 6.86398 10.6413 7.16465 10.5826 7.32598C10.3919 7.86865 10.2013 8.41131 10.0106 8.95398C9.81994 9.48198 9.62194 10.01 9.41661 10.538C9.19661 11.154 8.96194 11.77 8.71261 12.386C8.46328 12.9873 8.17728 13.574 7.85461 14.146C7.39994 14.9673 6.91594 15.7153 6.40261 16.39C5.90394 17.0793 5.30261 17.622 4.59861 18.018C3.90928 18.4286 3.03661 18.6413 1.98061 18.656H1.67261ZM22.3187 16.016C22.2894 16.016 22.2747 16.0086 22.2747 15.994C22.2747 15.9353 22.3041 15.8766 22.3627 15.818C22.4067 15.774 22.4434 15.73 22.4727 15.686C22.6047 15.466 22.7514 15.092 22.9127 14.564C23.0887 14.0213 23.2574 13.4273 23.4187 12.782C23.5947 12.1366 23.7487 11.5353 23.8807 10.978C24.0274 10.406 24.1301 9.97331 24.1887 9.67998C24.2181 9.56265 24.2474 9.40865 24.2767 9.21798C24.3207 9.02731 24.3721 8.83665 24.4307 8.64598C24.4894 8.45531 24.5554 8.33065 24.6287 8.27198C24.7607 8.15465 24.9587 8.05198 25.2227 7.96398C25.4867 7.87598 25.7507 7.80998 26.0147 7.76598C26.2934 7.70731 26.5207 7.67798 26.6967 7.67798C26.7261 7.67798 26.7627 7.69265 26.8067 7.72198C26.8507 7.75131 26.8801 7.78065 26.8947 7.80998L26.9167 7.87598C26.9021 7.91998 26.8801 7.94198 26.8507 7.94198C26.8214 7.92731 26.7921 7.91998 26.7627 7.91998C26.4841 7.91998 26.2274 8.08131 25.9927 8.40398C25.7581 8.71198 25.5527 9.09331 25.3767 9.54798C25.2007 10.0026 25.0467 10.4426 24.9147 10.868C24.7974 11.2786 24.7167 11.5866 24.6727 11.792C24.8194 11.4546 25.0101 11.0733 25.2447 10.648C25.4941 10.208 25.7801 9.78998 26.1027 9.39398C26.4254 8.98331 26.7774 8.64598 27.1587 8.38198C27.5401 8.10331 27.9434 7.96398 28.3687 7.96398C28.4274 7.96398 28.5227 7.97865 28.6547 8.00798C28.8014 8.02265 28.9334 8.05931 29.0508 8.11798C29.1828 8.16198 29.2488 8.22065 29.2488 8.29398L29.2267 8.31598H29.2048L29.0727 8.27198C29.1168 8.37465 29.1461 8.47731 29.1607 8.57998C29.1754 8.68265 29.1827 8.78531 29.1827 8.88798C29.1827 8.97598 29.1534 9.16665 29.0948 9.45998C29.0507 9.75331 28.9847 10.032 28.8968 10.296C28.8234 10.5453 28.7428 10.67 28.6547 10.67C28.5961 10.67 28.5667 10.648 28.5667 10.604C28.5667 10.5306 28.5887 10.4133 28.6328 10.252C28.6914 10.076 28.7207 9.91465 28.7207 9.76798C28.7207 9.50398 28.6547 9.29131 28.5227 9.12998C28.3907 8.96865 28.1927 8.88798 27.9287 8.88798C27.4887 8.88798 27.0634 9.07865 26.6527 9.45998C26.2421 9.82665 25.8681 10.2886 25.5307 10.846C25.1934 11.3886 24.9074 11.9386 24.6727 12.496C24.4381 13.0533 24.2767 13.508 24.1887 13.86C24.1301 14.0506 24.0787 14.3 24.0347 14.608C23.9907 14.9013 23.8807 15.1066 23.7047 15.224C23.6607 15.2386 23.5214 15.312 23.2867 15.444C23.0667 15.576 22.8541 15.7006 22.6487 15.818C22.4287 15.95 22.3187 16.016 22.3187 16.016ZM34.0683 15.818C33.2176 15.818 32.7923 15.3853 32.7923 14.52C32.7923 13.8746 32.9243 13.1853 33.1883 12.452C33.4523 11.704 33.797 10.9926 34.2223 10.318C34.6476 9.62865 35.095 9.07131 35.5643 8.64598C36.1216 8.16198 36.7743 7.91998 37.5223 7.91998C37.6983 7.91998 37.911 7.94198 38.1603 7.98598C38.4243 8.02998 38.6516 8.11798 38.8423 8.24998C39.033 8.36731 39.1283 8.54331 39.1283 8.77798C39.1283 9.11531 39.0036 9.50398 38.7543 9.94398C38.505 10.3693 38.2776 10.714 38.0723 10.978C38.1456 10.9926 38.2336 11.0146 38.3363 11.044C38.4536 11.0733 38.5123 11.132 38.5123 11.22C38.5123 11.264 38.4756 11.286 38.4023 11.286C38.2703 11.286 38.1383 11.2713 38.0063 11.242C37.8743 11.2126 37.7423 11.198 37.6103 11.198C37.1116 11.198 36.5983 11.2713 36.0703 11.418C35.557 11.5646 35.0656 11.7186 34.5963 11.88C34.4496 12.232 34.3176 12.6206 34.2003 13.046C34.0976 13.4713 34.0463 13.8746 34.0463 14.256C34.0463 14.5346 34.0976 14.784 34.2003 15.004C34.3176 15.224 34.5376 15.334 34.8603 15.334C35.2563 15.334 35.6596 15.224 36.0703 15.004C36.4956 14.7693 36.899 14.476 37.2803 14.124C37.6763 13.7573 38.0283 13.376 38.3363 12.98C38.6443 12.584 38.8863 12.2246 39.0623 11.902C39.077 11.9166 39.0843 11.946 39.0843 11.99C39.0843 12.122 39.0036 12.3053 38.8423 12.54C38.681 12.76 38.5123 12.98 38.3363 13.2C38.175 13.42 38.0796 13.5813 38.0503 13.684C38.0356 13.7866 38.0063 13.8746 37.9623 13.948C37.933 14.0213 37.8963 14.102 37.8523 14.19C37.603 14.4393 37.2436 14.696 36.7743 14.96C36.3196 15.2093 35.843 15.4146 35.3443 15.576C34.8603 15.7373 34.435 15.818 34.0683 15.818ZM34.9043 11.176C35.2856 11.1026 35.6596 11.044 36.0263 11C36.4076 10.956 36.789 10.934 37.1703 10.934C37.2876 10.934 37.405 10.934 37.5223 10.934C37.6396 10.934 37.757 10.9413 37.8743 10.956C37.9916 10.7066 38.087 10.4353 38.1603 10.142C38.2483 9.84865 38.2923 9.56265 38.2923 9.28398C38.2923 9.06398 38.2483 8.84398 38.1603 8.62398C38.0723 8.38931 37.8816 8.27198 37.5883 8.27198C37.3096 8.27198 37.0236 8.38931 36.7303 8.62398C36.4516 8.85865 36.2243 9.07131 36.0483 9.26198C35.8136 9.54065 35.601 9.84865 35.4103 10.186C35.2343 10.5086 35.0656 10.8386 34.9043 11.176ZM43.9492 15.774C43.7439 15.774 43.6046 15.7006 43.5312 15.554C43.4726 15.4073 43.4432 15.2533 43.4432 15.092V15.004C43.4432 14.7693 43.4872 14.5346 43.5752 14.3C43.6632 14.0506 43.7439 13.816 43.8172 13.596C43.9346 13.2586 44.0739 12.8406 44.2352 12.342C44.4112 11.8286 44.5652 11.3153 44.6972 10.802C44.8439 10.2886 44.9172 9.87065 44.9172 9.54798C44.9172 9.41598 44.8952 9.29131 44.8512 9.17398C44.8219 9.05665 44.7266 8.99065 44.5652 8.97598C44.5652 8.97598 44.5506 8.97598 44.5212 8.97598C44.5066 8.97598 44.4992 8.96865 44.4992 8.95398C44.4992 8.90998 44.5726 8.86598 44.7192 8.82198C44.8806 8.76331 45.0712 8.70465 45.2912 8.64598C45.5112 8.58731 45.7166 8.54331 45.9072 8.51398C46.0979 8.46998 46.2226 8.44798 46.2812 8.44798C46.3106 8.44798 46.3619 8.45531 46.4352 8.46998C46.5232 8.48465 46.5672 8.52865 46.5672 8.60198C46.5672 8.63131 46.5599 8.65331 46.5452 8.66798C46.3986 9.01998 46.2299 9.43798 46.0392 9.92198C45.8486 10.406 45.6579 10.9193 45.4672 11.462C45.2912 11.99 45.1446 12.5106 45.0272 13.024C44.9099 13.5226 44.8512 13.97 44.8512 14.366C44.8512 14.4393 44.8659 14.5126 44.8952 14.586C44.9246 14.6593 44.9832 14.696 45.0712 14.696C45.2326 14.696 45.4306 14.6006 45.6652 14.41C45.9146 14.2193 46.0906 14.0726 46.1932 13.97C46.7506 13.3686 47.2419 12.694 47.6672 11.946C48.0926 11.198 48.4299 10.4426 48.6792 9.67998C48.7379 9.51865 48.8039 9.34998 48.8772 9.17398C48.9506 8.98331 49.0752 8.85865 49.2512 8.79998C49.3099 8.78531 49.3686 8.77065 49.4272 8.75598C49.4859 8.74131 49.5446 8.72665 49.6032 8.71198C49.8526 8.59465 50.1019 8.50665 50.3512 8.44798C50.6152 8.37465 50.8792 8.33798 51.1432 8.33798C51.1726 8.33798 51.2092 8.35265 51.2532 8.38198C51.2972 8.41131 51.3266 8.44065 51.3412 8.46998V8.53598C51.3412 8.57998 51.3266 8.60198 51.2972 8.60198C51.2679 8.58731 51.2386 8.57998 51.2092 8.57998C50.9306 8.57998 50.6739 8.71931 50.4392 8.99798C50.2046 9.27665 49.9992 9.61398 49.8232 10.01C49.6472 10.406 49.5006 10.7946 49.3832 11.176C49.2806 11.5573 49.2072 11.8506 49.1632 12.056C49.1046 12.3346 49.0606 12.6206 49.0312 12.914C49.0019 13.2073 48.9872 13.5006 48.9872 13.794C48.9872 13.9406 49.0019 14.1313 49.0312 14.366C49.0752 14.586 49.1999 14.696 49.4052 14.696C49.6106 14.696 49.8452 14.586 50.1092 14.366C50.3732 14.146 50.5712 13.9626 50.7032 13.816C51.3486 13.112 51.8839 12.3346 52.3092 11.484C52.7346 10.6333 53.0866 9.76065 53.3652 8.86598C53.4092 8.73398 53.4606 8.61665 53.5192 8.51398C53.5779 8.41131 53.6732 8.32331 53.8052 8.24998C53.8639 8.22065 53.9446 8.18398 54.0472 8.13998C54.1499 8.08131 54.2306 8.05198 54.2892 8.05198C54.3772 8.05198 54.4212 8.11065 54.4212 8.22798C54.4212 8.38931 54.3479 8.61665 54.2012 8.90998C54.0692 9.20331 53.9666 9.42331 53.8932 9.56998C53.7319 9.86331 53.5119 10.2666 53.2332 10.78C52.9546 11.2786 52.6319 11.814 52.2652 12.386C51.8986 12.958 51.5099 13.5006 51.0992 14.014C50.6886 14.5126 50.2706 14.9306 49.8452 15.268C49.4199 15.5906 49.0166 15.752 48.6352 15.752C48.3272 15.752 48.1366 15.6346 48.0632 15.4C48.0046 15.1653 47.9752 14.9306 47.9752 14.696C47.9752 14.1826 47.9899 13.6766 48.0192 13.178C48.0632 12.6646 48.1366 12.1586 48.2392 11.66C47.9606 12.1146 47.6379 12.5986 47.2712 13.112C46.9046 13.6106 46.5012 14.08 46.0612 14.52C45.6212 14.9453 45.1592 15.2826 44.6752 15.532C44.5726 15.5906 44.4552 15.6493 44.3232 15.708C44.1912 15.752 44.0666 15.774 43.9492 15.774ZM4.13661 32.93C3.22728 32.93 2.44994 32.6073 1.80461 31.962C1.74594 31.9033 1.67994 31.83 1.60661 31.742C1.54794 31.6686 1.51861 31.588 1.51861 31.5C1.51861 31.3826 1.55528 31.324 1.62861 31.324C1.71661 31.324 1.77528 31.3093 1.80461 31.28C1.89261 31.2066 1.93661 31.1186 1.93661 31.016C1.93661 30.928 1.94394 30.8326 1.95861 30.73C1.98794 30.5393 2.08328 30.3266 2.24461 30.092C2.42061 29.8573 2.61861 29.74 2.83861 29.74C2.86794 29.74 2.88261 29.7546 2.88261 29.784C2.88261 29.8426 2.83128 29.9233 2.72861 30.026C2.62594 30.114 2.51594 30.2313 2.39861 30.378C2.29594 30.5246 2.24461 30.6933 2.24461 30.884C2.24461 31.2066 2.39861 31.4633 2.70661 31.654C3.01461 31.8593 3.35928 32.006 3.74061 32.094C4.13661 32.182 4.45928 32.226 4.70861 32.226C5.38328 32.226 5.99928 32.0646 6.55661 31.742C7.11394 31.434 7.62728 31.0233 8.09661 30.51C8.56594 29.9966 8.98394 29.432 9.35061 28.816C9.71728 28.1853 10.0399 27.562 10.3186 26.946C10.6119 26.3153 10.8539 25.736 11.0446 25.208H9.90061C9.84194 25.208 9.72461 25.1933 9.54861 25.164C9.38728 25.12 9.23328 25.0686 9.08661 25.01C8.93994 24.9513 8.86661 24.8853 8.86661 24.812C8.86661 24.724 8.97661 24.658 9.19661 24.614C9.43128 24.5553 9.70261 24.5186 10.0106 24.504C10.3333 24.4746 10.6339 24.4526 10.9126 24.438C11.1913 24.4233 11.3746 24.416 11.4626 24.416C11.9759 23.1986 12.4746 21.974 12.9586 20.742C13.4426 19.4953 13.9339 18.2633 14.4326 17.046C13.3619 16.7526 12.2986 16.4813 11.2426 16.232C10.1866 15.9826 9.09394 15.858 7.96461 15.858C7.43661 15.858 6.86461 15.9093 6.24861 16.012C5.64728 16.1 5.08261 16.276 4.55461 16.54C4.02661 16.7893 3.60128 17.156 3.27861 17.64C3.16128 17.8306 3.06594 18.036 2.99261 18.256C2.91928 18.4613 2.88261 18.6813 2.88261 18.916C2.88261 19.532 3.06594 20.0526 3.43261 20.478C3.79928 20.8886 4.25394 21.1966 4.79661 21.402C5.33928 21.6073 5.88194 21.71 6.42461 21.71C6.64461 21.71 6.84994 21.666 7.04061 21.578C7.23128 21.4753 7.39994 21.3506 7.54661 21.204C7.59061 21.2186 7.61261 21.248 7.61261 21.292C7.61261 21.3506 7.60528 21.3946 7.59061 21.424C7.39994 21.7026 7.14328 21.8933 6.82061 21.996C6.49794 22.084 6.17528 22.128 5.85261 22.128C5.23661 22.128 4.63528 22.0106 4.04861 21.776C3.47661 21.5413 2.99994 21.1893 2.61861 20.72C2.25194 20.2506 2.06861 19.6713 2.06861 18.982C2.06861 18.6886 2.10528 18.41 2.17861 18.146C2.26661 17.8673 2.38394 17.6033 2.53061 17.354C2.88261 16.7673 3.35194 16.3126 3.93861 15.99C4.52528 15.6526 5.15594 15.418 5.83061 15.286C6.51994 15.154 7.17994 15.088 7.81061 15.088C8.98394 15.088 10.1426 15.2346 11.2866 15.528C12.4306 15.8213 13.5673 16.1293 14.6966 16.452C14.8139 16.2026 14.9899 15.9606 15.2246 15.726C15.4593 15.4913 15.7306 15.374 16.0386 15.374C16.1999 15.374 16.3466 15.4253 16.4786 15.528C16.6253 15.616 16.7059 15.748 16.7206 15.924C16.6033 15.9826 16.4713 16.1146 16.3246 16.32C16.1779 16.5253 16.0679 16.6866 15.9946 16.804C16.1706 16.848 16.3539 16.8993 16.5446 16.958C16.7499 17.002 16.9479 17.024 17.1386 17.024C17.3146 17.024 17.4906 16.9726 17.6666 16.87C17.8426 16.7526 17.9453 16.694 17.9746 16.694C18.0039 16.694 18.0186 16.7086 18.0186 16.738C18.0186 16.9286 17.8866 17.112 17.6226 17.288C17.3733 17.464 17.1679 17.552 17.0066 17.552C16.7866 17.552 16.5593 17.5373 16.3246 17.508C16.1046 17.464 15.8846 17.4126 15.6646 17.354C15.0339 18.4686 14.4473 19.6273 13.9046 20.83C13.3619 22.018 12.8706 23.2133 12.4306 24.416H15.6426C16.1853 24.416 16.7206 24.416 17.2486 24.416C17.7913 24.416 18.3266 24.4233 18.8546 24.438C19.0306 24.0126 19.2506 23.4773 19.5146 22.832C19.7786 22.1866 20.0793 21.4973 20.4166 20.764C20.7686 20.016 21.1499 19.2826 21.5606 18.564C21.9713 17.8453 22.4113 17.1853 22.8806 16.584C23.3499 15.9826 23.8413 15.506 24.3546 15.154C24.8826 14.7873 25.4179 14.604 25.9606 14.604C26.1219 14.604 26.2979 14.6333 26.4886 14.692C26.6939 14.7506 26.8406 14.8533 26.9286 15C26.9873 15.0586 27.0166 15.1246 27.0166 15.198C27.0166 15.2566 27.0019 15.286 26.9726 15.286C26.8553 15.242 26.7526 15.1613 26.6646 15.044C26.5913 14.9266 26.4593 14.868 26.2686 14.868C25.9753 14.868 25.6526 14.9853 25.3006 15.22C24.9486 15.44 24.6186 15.704 24.3106 16.012C24.0173 16.32 23.7826 16.5913 23.6066 16.826C23.2839 17.2806 22.9833 17.7646 22.7046 18.278C22.4259 18.7766 22.1619 19.2826 21.9126 19.796C21.5459 20.5586 21.1866 21.3286 20.8346 22.106C20.4973 22.8833 20.1673 23.6606 19.8446 24.438L21.6926 24.504C21.8099 24.504 22.0006 24.5113 22.2646 24.526C22.5433 24.5406 22.7339 24.57 22.8366 24.614C22.8806 24.614 22.9026 24.636 22.9026 24.68C22.9026 24.6946 22.8806 24.7093 22.8366 24.724C22.8073 24.7386 22.7926 24.746 22.7926 24.746C22.5579 24.8193 22.3013 24.878 22.0226 24.922C21.7586 24.9513 21.5019 24.9733 21.2526 24.988C20.9739 25.0026 20.6953 25.0173 20.4166 25.032C20.1526 25.032 19.8813 25.0393 19.6026 25.054C19.4413 25.4646 19.2506 25.978 19.0306 26.594C18.8106 27.1953 18.6199 27.804 18.4586 28.42C18.2973 29.0213 18.2166 29.542 18.2166 29.982C18.2166 30.0846 18.2313 30.224 18.2606 30.4C18.3046 30.5613 18.4073 30.642 18.5686 30.642C18.6419 30.642 18.7079 30.6273 18.7666 30.598C18.8253 30.5686 18.8839 30.5393 18.9426 30.51C19.2799 30.3193 19.6026 30.0626 19.9106 29.74C20.2333 29.4026 20.5266 29.0433 20.7906 28.662C21.0546 28.266 21.2746 27.9066 21.4506 27.584C21.4653 27.5986 21.4726 27.6206 21.4726 27.65C21.4726 27.7673 21.3846 27.9506 21.2086 28.2C21.0473 28.4493 20.8786 28.6913 20.7026 28.926C20.5413 29.1606 20.4533 29.3073 20.4386 29.366C20.4239 29.4686 20.4019 29.5566 20.3726 29.63C20.3433 29.6886 20.2993 29.7693 20.2406 29.872C20.0646 30.048 19.8446 30.2533 19.5806 30.488C19.3166 30.7226 19.0379 30.928 18.7446 31.104C18.4513 31.28 18.1653 31.368 17.8866 31.368C17.5639 31.368 17.3513 31.2653 17.2486 31.06C17.1606 30.8693 17.1166 30.642 17.1166 30.378C17.1166 29.894 17.2046 29.322 17.3806 28.662C17.5566 28.002 17.7619 27.3493 17.9966 26.704C18.2313 26.0586 18.4366 25.516 18.6126 25.076H16.2366C15.5473 25.076 14.8579 25.0833 14.1686 25.098C13.4793 25.1126 12.7899 25.142 12.1006 25.186C11.8513 25.758 11.5286 26.3886 11.1326 27.078C10.7366 27.7673 10.2819 28.4566 9.76861 29.146C9.25528 29.8206 8.69794 30.444 8.09661 31.016C7.49528 31.6026 6.85728 32.0646 6.18261 32.402C5.52261 32.754 4.84061 32.93 4.13661 32.93ZM27.0732 30.774C26.8385 30.774 26.6845 30.686 26.6112 30.51C26.5525 30.3193 26.5232 30.1286 26.5232 29.938C26.5232 29.2486 26.6552 28.508 26.9192 27.716C27.1832 26.924 27.5278 26.1686 27.9532 25.45C28.3785 24.7166 28.8405 24.1153 29.3392 23.646C29.8672 23.162 30.4905 22.92 31.2092 22.92C31.5025 22.92 31.7885 22.9566 32.0672 23.03C32.3605 23.0886 32.6465 23.1766 32.9252 23.294C33.1745 23.118 33.4458 22.964 33.7392 22.832C34.0325 22.7 34.3332 22.634 34.6412 22.634C34.7145 22.634 34.7732 22.678 34.8172 22.766V22.832C34.8172 22.876 34.7952 22.898 34.7512 22.898C34.7218 22.8833 34.6925 22.876 34.6632 22.876C34.4285 22.876 34.1718 23.0593 33.8932 23.426C33.6145 23.778 33.3358 24.2326 33.0572 24.79C32.7785 25.3473 32.5218 25.934 32.2872 26.55C32.0672 27.166 31.8838 27.7306 31.7372 28.244C31.6052 28.7573 31.5392 29.146 31.5392 29.41C31.5392 29.5126 31.5538 29.63 31.5832 29.762C31.6272 29.894 31.7152 29.96 31.8472 29.96C31.9205 29.96 31.9792 29.9453 32.0232 29.916C32.0818 29.8866 32.1405 29.8573 32.1992 29.828C32.5218 29.6373 32.8372 29.3806 33.1452 29.058C33.4678 28.7206 33.7612 28.3613 34.0252 27.98C34.3038 27.584 34.5312 27.2246 34.7072 26.902C34.7218 26.9166 34.7292 26.946 34.7292 26.99C34.7292 27.078 34.6778 27.21 34.5752 27.386C34.4725 27.5473 34.3552 27.7233 34.2232 27.914C34.0912 28.1046 33.9665 28.2733 33.8492 28.42C33.7465 28.5666 33.6952 28.6546 33.6952 28.684C33.6805 28.7866 33.6585 28.8746 33.6292 28.948C33.5998 29.0066 33.5558 29.0873 33.4972 29.19C33.3065 29.3806 33.0645 29.6006 32.7712 29.85C32.4778 30.0993 32.1698 30.3193 31.8472 30.51C31.5392 30.686 31.2385 30.774 30.9452 30.774C30.4905 30.774 30.2632 30.532 30.2632 30.048C30.2632 29.7546 30.3218 29.4173 30.4392 29.036C30.5712 28.64 30.7178 28.2513 30.8792 27.87C31.0552 27.474 31.2092 27.144 31.3412 26.88C31.3412 26.8653 31.3412 26.8433 31.3412 26.814C31.3412 26.7846 31.3338 26.77 31.3192 26.77C31.3045 26.77 31.2825 26.7846 31.2532 26.814C31.0772 27.0486 30.8205 27.386 30.4832 27.826C30.1458 28.266 29.7718 28.7133 29.3612 29.168C28.9652 29.608 28.5618 29.9893 28.1512 30.312C27.7405 30.62 27.3812 30.774 27.0732 30.774ZM28.0412 29.828C28.2025 29.828 28.4005 29.7253 28.6352 29.52C28.8845 29.3 29.1412 29.0433 29.4052 28.75C29.6838 28.442 29.9258 28.1486 30.1312 27.87C30.3512 27.5913 30.5052 27.386 30.5932 27.254C30.7692 26.99 30.9672 26.66 31.1872 26.264C31.4218 25.868 31.6198 25.4573 31.7812 25.032C31.9572 24.6066 32.0452 24.2473 32.0452 23.954C32.0452 23.4993 31.8178 23.272 31.3632 23.272C31.0992 23.272 30.8205 23.3893 30.5272 23.624C30.2338 23.8586 29.9992 24.0713 29.8232 24.262C29.6325 24.4966 29.4125 24.834 29.1632 25.274C28.9285 25.714 28.7085 26.1906 28.5032 26.704C28.2978 27.2173 28.1218 27.7086 27.9752 28.178C27.8432 28.6473 27.7772 29.036 27.7772 29.344C27.7772 29.432 27.7918 29.5346 27.8212 29.652C27.8505 29.7693 27.9238 29.828 28.0412 29.828ZM39.1084 30.752C38.8737 30.752 38.705 30.6786 38.6024 30.532C38.5144 30.3853 38.463 30.2093 38.4484 30.004C38.4484 29.7986 38.4484 29.608 38.4484 29.432C38.4484 29.1533 38.4704 28.75 38.5144 28.222C38.573 27.6793 38.6537 27.1146 38.7564 26.528C38.859 25.9266 38.991 25.384 39.1524 24.9C39.3284 24.4013 39.5337 24.064 39.7684 23.888C40.003 23.712 40.2964 23.58 40.6484 23.492C41.015 23.3893 41.3377 23.338 41.6164 23.338C41.6457 23.338 41.6824 23.3526 41.7264 23.382C41.7704 23.4113 41.7997 23.4406 41.8144 23.47V23.536C41.7997 23.58 41.7777 23.602 41.7484 23.602C41.7337 23.5873 41.7117 23.58 41.6824 23.58C41.4037 23.58 41.147 23.7193 40.9124 23.998C40.6777 24.2766 40.4724 24.614 40.2964 25.01C40.1204 25.406 39.9737 25.7946 39.8564 26.176C39.7537 26.5573 39.6804 26.8506 39.6364 27.056C39.5777 27.3346 39.5337 27.6206 39.5044 27.914C39.475 28.2073 39.4604 28.5006 39.4604 28.794C39.4604 28.9406 39.475 29.1313 39.5044 29.366C39.5484 29.586 39.673 29.696 39.8784 29.696C40.0837 29.696 40.311 29.586 40.5604 29.366C40.8244 29.146 41.0297 28.9626 41.1764 28.816C41.8364 28.112 42.3717 27.3346 42.7824 26.484C43.193 25.6333 43.545 24.7606 43.8384 23.866C43.8824 23.734 43.9337 23.6166 43.9924 23.514C44.051 23.4113 44.1464 23.3233 44.2784 23.25C44.337 23.2206 44.4177 23.184 44.5204 23.14C44.623 23.0813 44.7037 23.052 44.7624 23.052C44.8504 23.052 44.8944 23.1106 44.8944 23.228C44.8944 23.3893 44.821 23.6166 44.6744 23.91C44.5424 24.2033 44.4397 24.4233 44.3664 24.57C44.205 24.8633 43.985 25.2666 43.7064 25.78C43.4277 26.2786 43.105 26.814 42.7384 27.386C42.3717 27.958 41.983 28.5006 41.5724 29.014C41.1617 29.5126 40.7437 29.9306 40.3184 30.268C39.893 30.5906 39.4897 30.752 39.1084 30.752ZM49.6402 30.818C48.7895 30.818 48.3642 30.3853 48.3642 29.52C48.3642 28.8746 48.4962 28.1853 48.7602 27.452C49.0242 26.704 49.3688 25.9926 49.7942 25.318C50.2195 24.6286 50.6668 24.0713 51.1362 23.646C51.6935 23.162 52.3462 22.92 53.0942 22.92C53.2702 22.92 53.4828 22.942 53.7322 22.986C53.9962 23.03 54.2235 23.118 54.4142 23.25C54.6048 23.3673 54.7002 23.5433 54.7002 23.778C54.7002 24.1153 54.5755 24.504 54.3262 24.944C54.0768 25.3693 53.8495 25.714 53.6442 25.978C53.7175 25.9926 53.8055 26.0146 53.9082 26.044C54.0255 26.0733 54.0842 26.132 54.0842 26.22C54.0842 26.264 54.0475 26.286 53.9742 26.286C53.8422 26.286 53.7102 26.2713 53.5782 26.242C53.4462 26.2126 53.3142 26.198 53.1822 26.198C52.6835 26.198 52.1702 26.2713 51.6422 26.418C51.1288 26.5646 50.6375 26.7186 50.1682 26.88C50.0215 27.232 49.8895 27.6206 49.7722 28.046C49.6695 28.4713 49.6182 28.8746 49.6182 29.256C49.6182 29.5346 49.6695 29.784 49.7722 30.004C49.8895 30.224 50.1095 30.334 50.4322 30.334C50.8282 30.334 51.2315 30.224 51.6422 30.004C52.0675 29.7693 52.4708 29.476 52.8522 29.124C53.2482 28.7573 53.6002 28.376 53.9082 27.98C54.2162 27.584 54.4582 27.2246 54.6342 26.902C54.6488 26.9166 54.6562 26.946 54.6562 26.99C54.6562 27.122 54.5755 27.3053 54.4142 27.54C54.2528 27.76 54.0842 27.98 53.9082 28.2C53.7468 28.42 53.6515 28.5813 53.6222 28.684C53.6075 28.7866 53.5782 28.8746 53.5342 28.948C53.5048 29.0213 53.4682 29.102 53.4242 29.19C53.1748 29.4393 52.8155 29.696 52.3462 29.96C51.8915 30.2093 51.4148 30.4146 50.9162 30.576C50.4322 30.7373 50.0068 30.818 49.6402 30.818ZM50.4762 26.176C50.8575 26.1026 51.2315 26.044 51.5982 26C51.9795 25.956 52.3608 25.934 52.7422 25.934C52.8595 25.934 52.9768 25.934 53.0942 25.934C53.2115 25.934 53.3288 25.9413 53.4462 25.956C53.5635 25.7066 53.6588 25.4353 53.7322 25.142C53.8202 24.8486 53.8642 24.5626 53.8642 24.284C53.8642 24.064 53.8202 23.844 53.7322 23.624C53.6442 23.3893 53.4535 23.272 53.1602 23.272C52.8815 23.272 52.5955 23.3893 52.3022 23.624C52.0235 23.8586 51.7962 24.0713 51.6202 24.262C51.3855 24.5406 51.1728 24.8486 50.9822 25.186C50.8062 25.5086 50.6375 25.8386 50.4762 26.176ZM58.3991 31.016C58.3844 31.016 58.3771 31.0086 58.3771 30.994C58.3771 30.9353 58.4064 30.8766 58.4651 30.818C58.5091 30.7593 58.5384 30.7153 58.5531 30.686C58.6558 30.5246 58.7804 30.2533 58.9271 29.872C59.0591 29.476 59.1911 29.036 59.3231 28.552C59.4698 28.0533 59.6018 27.5546 59.7191 27.056C59.8511 26.5426 59.9684 26.0733 60.0711 25.648C60.1738 25.2226 60.2471 24.9 60.2911 24.68C60.3204 24.5626 60.3498 24.4086 60.3791 24.218C60.4084 24.0273 60.4524 23.8366 60.5111 23.646C60.5698 23.4553 60.6358 23.3306 60.7091 23.272C60.8558 23.1546 61.0538 23.052 61.3031 22.964C61.5671 22.876 61.8384 22.81 62.1171 22.766C62.3958 22.7073 62.6231 22.678 62.7991 22.678C62.8284 22.678 62.8651 22.6926 62.9091 22.722C62.9531 22.7513 62.9824 22.7806 62.9971 22.81V22.876C62.9971 22.92 62.9824 22.942 62.9531 22.942C62.9238 22.9273 62.8944 22.92 62.8651 22.92C62.5424 22.92 62.2564 23.1033 62.0071 23.47C61.7578 23.822 61.5451 24.262 61.3691 24.79C61.1931 25.3033 61.0464 25.802 60.9291 26.286C60.8118 26.77 60.7238 27.1366 60.6651 27.386C61.1344 26.5793 61.6698 25.8093 62.2711 25.076C62.8871 24.328 63.6058 23.7266 64.4271 23.272C64.5298 23.2133 64.6471 23.1546 64.7791 23.096C64.9111 23.0226 65.0284 22.986 65.1311 22.986C65.3218 22.986 65.4391 23.074 65.4831 23.25C65.5271 23.4113 65.5491 23.5653 65.5491 23.712C65.5491 23.9026 65.4831 24.1813 65.3511 24.548C65.2191 24.9146 65.0651 25.2813 64.8891 25.648C64.7278 26 64.6031 26.2786 64.5151 26.484C64.4271 26.7186 64.3244 27.0193 64.2071 27.386C64.0898 27.7526 63.9871 28.1193 63.8991 28.486C63.8111 28.8526 63.7671 29.1606 63.7671 29.41C63.7671 29.5126 63.7818 29.63 63.8111 29.762C63.8404 29.894 63.9211 29.96 64.0531 29.96C64.1264 29.96 64.1851 29.9453 64.2291 29.916C64.2878 29.8866 64.3464 29.8573 64.4051 29.828C64.7424 29.6373 65.0651 29.3806 65.3731 29.058C65.6958 28.7206 65.9891 28.3613 66.2531 27.98C66.5171 27.584 66.7371 27.2246 66.9131 26.902C66.9278 26.9166 66.9351 26.946 66.9351 26.99C66.9351 27.078 66.8838 27.21 66.7811 27.386C66.6784 27.5473 66.5611 27.7233 66.4291 27.914C66.2971 28.1046 66.1724 28.2733 66.0551 28.42C65.9524 28.5666 65.9011 28.6546 65.9011 28.684C65.8864 28.7866 65.8644 28.8746 65.8351 28.948C65.8058 29.0066 65.7691 29.0873 65.7251 29.19C65.5491 29.366 65.2924 29.586 64.9551 29.85C64.6324 30.0993 64.2951 30.3266 63.9431 30.532C63.6058 30.7226 63.3051 30.818 63.0411 30.818C62.8064 30.818 62.6451 30.73 62.5571 30.554C62.4838 30.3633 62.4471 30.1653 62.4471 29.96C62.4471 29.564 62.5278 29.0946 62.6891 28.552C62.8504 27.9946 63.0411 27.4446 63.2611 26.902C63.4811 26.3446 63.6644 25.8753 63.8111 25.494C63.8551 25.3766 63.9211 25.1933 64.0091 24.944C64.1118 24.6946 64.1631 24.5186 64.1631 24.416C64.1631 24.3426 64.1484 24.262 64.1191 24.174C64.1044 24.086 64.0384 24.042 63.9211 24.042C63.7744 24.042 63.5838 24.1373 63.3491 24.328C63.1291 24.5186 62.9604 24.6726 62.8431 24.79C62.2124 25.494 61.6698 26.2786 61.2151 27.144C60.7604 27.9946 60.3791 28.8746 60.0711 29.784C60.0271 29.9013 59.9978 29.9893 59.9831 30.048C59.9831 30.092 59.9244 30.1506 59.8071 30.224C59.7631 30.2533 59.6238 30.334 59.3891 30.466C59.1691 30.598 58.9564 30.7226 58.7511 30.84C58.5311 30.9573 58.4138 31.016 58.3991 31.016Z" fill="white"/>
</svg>
